<svg xmlns="http://www.w3.org/2000/svg" viewBox="0 0 1600 900" role="img" aria-label="Closed courthouse kiosk in rain">
  <defs>
    <linearGradient id="kbg" x1="0" x2="1" y1="0" y2="1">
      <stop offset="0" stop-color="#06111b"/>
      <stop offset="0.5" stop-color="#121722"/>
      <stop offset="1" stop-color="#05070b"/>
    </linearGradient>
    <radialGradient id="buzz" cx="0.55" cy="0.16" r="0.45">
      <stop offset="0" stop-color="#f2d17a" stop-opacity="0.54"/>
      <stop offset="0.32" stop-color="#f2a93b" stop-opacity="0.18"/>
      <stop offset="1" stop-color="#000" stop-opacity="0"/>
    </radialGradient>
  </defs>
  <rect width="1600" height="900" fill="url(#kbg)"/>
  <rect width="1600" height="900" fill="url(#buzz)"/>
  <rect x="260" y="198" width="1080" height="430" rx="10" fill="#0d1219" stroke="#314852" stroke-width="6"/>
  <rect x="326" y="268" width="948" height="226" fill="#141921" stroke="#263b46" stroke-width="5"/>
  <g stroke="#2d3e48" stroke-width="10">
    <path d="M350 310h900M350 360h900M350 410h900M350 460h900"/>
  </g>
  <rect x="698" y="540" width="220" height="44" fill="#0a0f15" stroke="#5bd3df" stroke-opacity="0.35"/>
  <path d="M0 634c316 52 610 76 884 72 252-4 490-34 716-90v284H0z" fill="#04070a" opacity="0.88"/>
  <g opacity="0.38" stroke="#80e9ff" stroke-linecap="round" stroke-width="4">
    <path d="M120 40l-60 190M302 0l-78 260M526 24l-70 232M782 2l-84 272M1034 26l-62 210M1268 0l-84 258M1490 42l-58 178"/>
  </g>
</svg>
